<?xml version="1.0" encoding="utf-8"?><svg width="17" height="17" xmlns="http://www.w3.org/2000/svg" viewBox="0 0 17 17"><path d="M8.875 4.664a4.044 4.044 0 00-4.043 4.043 4.021 4.021 0 004.043 4.043 4.044 4.044 0 004.043-4.043c0-2.215-1.828-4.043-4.043-4.043zm0 6.68a2.633 2.633 0 01-2.637-2.637c0-1.441 1.16-2.602 2.637-2.602a2.596 2.596 0 012.602 2.602c0 1.477-1.16 2.637-2.602 2.637zm5.133-6.82a.945.945 0 00-.95-.95.945.945 0 00-.949.95c0 .527.422.949.95.949.527 0 .949-.422.949-.95zm2.672.949c-.07-1.266-.352-2.391-1.266-3.305C14.5 1.254 13.375.973 12.11.902c-1.3-.07-5.203-.07-6.504 0-1.265.07-2.355.352-3.304 1.266-.914.914-1.196 2.039-1.266 3.305-.07 1.3-.07 5.203 0 6.504.07 1.265.352 2.355 1.266 3.304.949.914 2.039 1.196 3.304 1.266 1.301.07 5.204.07 6.504 0 1.266-.07 2.391-.352 3.305-1.266.914-.949 1.195-2.039 1.266-3.304.07-1.301.07-5.204 0-6.504zm-1.688 7.875c-.246.703-.808 1.23-1.476 1.511-1.055.422-3.516.317-4.641.317-1.16 0-3.621.105-4.64-.317a2.666 2.666 0 01-1.512-1.511c-.422-1.02-.317-3.48-.317-4.641 0-1.125-.105-3.586.317-4.64A2.712 2.712 0 014.234 2.59c1.02-.422 3.48-.317 4.641-.317 1.125 0 3.586-.105 4.64.317.669.246 1.196.808 1.477 1.476.422 1.055.317 3.516.317 4.641 0 1.16.105 3.621-.317 4.64z"/></svg>