<?xml version="1.0" encoding="utf-8"?><svg width="20" height="12" xmlns="http://www.w3.org/2000/svg" viewBox="0 0 20 12"><path d="M19.16.855c-.07.352-.351.926-.844 1.723-.468.797-.902 1.5-1.3 2.11-.399.585-.61.89-.633.914-.14.21-.211.363-.211.457 0 .093.07.257.21.492l.212.246.562.562c.211.211.446.457.703.739.258.28.493.562.703.843.235.258.434.528.598.809.188.281.317.516.387.703.164.586-.07.879-.703.879h-2.075c-.163 0-.304-.023-.421-.07a1.496 1.496 0 01-.387-.246 3.019 3.019 0 01-.387-.387c-.117-.14-.293-.34-.527-.598a21.573 21.573 0 00-.703-.738c-.938-.89-1.63-1.336-2.074-1.336-.282 0-.446.082-.493.246-.046.164-.07.633-.07 1.406.023.375.035.68.035.914 0 .282-.094.493-.281.633-.188.117-.598.176-1.23.176-1.102 0-2.215-.328-3.34-.984-1.125-.657-2.11-1.594-2.954-2.813a23.071 23.071 0 01-2.003-3.2c-.516-1.077-.856-1.897-1.02-2.46C.75 1.312.668.915.668.68c0-.399.234-.598.703-.598h2.074c.258 0 .446.059.563.176.14.117.258.328.351.633.493 1.43 1.09 2.707 1.793 3.832C6.88 5.848 7.43 6.41 7.805 6.41c.14 0 .234-.047.28-.14.071-.118.106-.329.106-.633V2.578a2.819 2.819 0 00-.175-.844c-.094-.234-.188-.398-.282-.492l-.28-.351a.63.63 0 01-.106-.317c0-.094.023-.176.07-.246a.628.628 0 01.176-.176.624.624 0 01.281-.07h3.27c.375 0 .562.258.562.773v4.079c0 .398.105.597.316.597.235 0 .563-.21.985-.633.445-.492.879-1.09 1.3-1.793.422-.703.739-1.289.95-1.757l.316-.668c.164-.399.457-.598.88-.598h2.073c.563 0 .774.258.633.773z"/></svg>