<?xml version="1.0" encoding="utf-8"?><svg width="20" height="15" xmlns="http://www.w3.org/2000/svg" viewBox="0 0 20 15"><path d="M19.336 3.066c.07.282.129.633.176 1.055.07.422.117.844.14 1.266.024.398.035.773.035 1.125.024.351.036.644.036.879v.316c0 2.11-.13 3.668-.387 4.676a2.45 2.45 0 01-.633 1.055 2.437 2.437 0 01-1.09.632c-.445.117-1.289.211-2.531.282-1.242.046-2.379.082-3.41.105h-1.547c-4.008 0-6.504-.129-7.488-.387-.914-.258-1.489-.82-1.723-1.687-.117-.445-.21-1.055-.281-1.828A134.95 134.95 0 01.527 8.55v-.844c0-2.086.13-3.633.387-4.64.117-.422.328-.786.633-1.09a2.437 2.437 0 011.09-.633c.445-.117 1.289-.2 2.531-.246C6.41 1.028 7.547.98 8.578.957h1.547c4.008 0 6.504.129 7.488.387.422.117.785.328 1.09.633.305.304.516.668.633 1.09zM8.156 10.59l5.028-2.883-5.028-2.848v5.73z"/></svg>